<svg
  width="1260"
  height="700"
  viewBox="0 0 1260 700"
  fill="none"
  xmlns="http://www.w3.org/2000/svg"
>
  <rect width="1260" height="700" fill="#F7F7F2" />
  <defs>
    <pattern id="grid" width="36" height="36" patternUnits="userSpaceOnUse">
      <path d="M 36 0 L 0 0 0 36" fill="none" stroke="#DCDCD4" stroke-width="1" />
    </pattern>
    <marker id="arrow" markerWidth="12" markerHeight="12" refX="10" refY="6" orient="auto">
      <path
        d="M2 2 L10 6 L2 10"
        fill="none"
        stroke="#141414"
        stroke-width="1.8"
        stroke-linecap="round"
        stroke-linejoin="round"
      />
    </marker>
  </defs>
  <rect width="1260" height="700" fill="url(#grid)" opacity="0.55" />

  <text
    x="70"
    y="96"
    font-family="Helvetica, Arial, sans-serif"
    font-size="48"
    font-weight="700"
    fill="#141414"
  >
    LLM Wiki
  </text>
  <text x="72" y="134" font-family="ui-monospace, Menlo, monospace" font-size="18" fill="#6F6F6A">
    knowledge work as compilation
  </text>

  <rect
    x="84"
    y="230"
    width="214"
    height="272"
    rx="18"
    fill="#FFFFFF"
    stroke="#141414"
    stroke-width="2"
  />
  <text
    x="118"
    y="288"
    font-family="Helvetica, Arial, sans-serif"
    font-size="26"
    font-weight="700"
    fill="#141414"
  >
    Raw
  </text>
  <text x="118" y="322" font-family="ui-monospace, Menlo, monospace" font-size="15" fill="#6F6F6A">
    sources stay fixed
  </text>
  <rect x="118" y="366" width="146" height="35" rx="5" fill="#F3F4F6" stroke="#D1D5DB" />
  <rect x="118" y="416" width="146" height="35" rx="5" fill="#F3F4F6" stroke="#D1D5DB" />

  <rect
    x="398"
    y="230"
    width="224"
    height="272"
    rx="18"
    fill="#FFF8D7"
    stroke="#CE9500"
    stroke-width="2"
  />
  <text
    x="432"
    y="288"
    font-family="Helvetica, Arial, sans-serif"
    font-size="26"
    font-weight="700"
    fill="#141414"
  >
    Agent
  </text>
  <text x="432" y="322" font-family="ui-monospace, Menlo, monospace" font-size="15" fill="#6F6F6A">
    compile and lint
  </text>
  <circle
    cx="510"
    cy="406"
    r="56"
    fill="#EFC003"
    fill-opacity="0.27"
    stroke="#CE9500"
    stroke-width="2"
  />
  <circle
    cx="510"
    cy="406"
    r="25"
    fill="#EFC003"
    fill-opacity="0.55"
    stroke="#CE9500"
    stroke-width="2"
  />

  <rect
    x="720"
    y="230"
    width="264"
    height="272"
    rx="18"
    fill="#FFFFFF"
    stroke="#141414"
    stroke-width="2"
  />
  <text
    x="756"
    y="288"
    font-family="Helvetica, Arial, sans-serif"
    font-size="26"
    font-weight="700"
    fill="#141414"
  >
    Wiki
  </text>
  <text x="756" y="322" font-family="ui-monospace, Menlo, monospace" font-size="15" fill="#6F6F6A">
    maintained synthesis
  </text>
  <rect x="756" y="360" width="190" height="34" rx="5" fill="#F3F8ED" stroke="#75B34A" />
  <rect x="756" y="410" width="190" height="34" rx="5" fill="#F3F8ED" stroke="#75B34A" />
  <rect x="756" y="460" width="190" height="34" rx="5" fill="#F3F8ED" stroke="#75B34A" />

  <rect
    x="1068"
    y="254"
    width="132"
    height="90"
    rx="16"
    fill="#111827"
    stroke="#111827"
    stroke-width="2"
  />
  <text
    x="1095"
    y="309"
    font-family="Helvetica, Arial, sans-serif"
    font-size="23"
    font-weight="700"
    fill="#FFFFFF"
  >
    Answer
  </text>
  <rect
    x="1068"
    y="402"
    width="132"
    height="90"
    rx="16"
    fill="#F3F8ED"
    stroke="#75B34A"
    stroke-width="2"
  />
  <text
    x="1091"
    y="457"
    font-family="Helvetica, Arial, sans-serif"
    font-size="23"
    font-weight="700"
    fill="#141414"
  >
    Writeback
  </text>

  <path d="M300 366 H394" stroke="#141414" stroke-width="2.1" marker-end="url(#arrow)" />
  <path d="M624 366 H716" stroke="#141414" stroke-width="2.1" marker-end="url(#arrow)" />
  <path d="M986 298 H1064" stroke="#141414" stroke-width="2.1" marker-end="url(#arrow)" />
  <path d="M1134 346 V398" stroke="#75B34A" stroke-width="2.1" marker-end="url(#arrow)" />
  <path
    d="M1068 454 C1026 522 926 548 852 506"
    stroke="#75B34A"
    stroke-width="2.1"
    marker-end="url(#arrow)"
  />

  <rect
    x="398"
    y="540"
    width="224"
    height="78"
    rx="14"
    fill="#FFFFFF"
    stroke="#141414"
    stroke-width="1.5"
  />
  <text
    x="432"
    y="573"
    font-family="Helvetica, Arial, sans-serif"
    font-size="21"
    font-weight="700"
    fill="#141414"
  >
    Schema
  </text>
  <text x="432" y="601" font-family="ui-monospace, Menlo, monospace" font-size="14" fill="#6F6F6A">
    AGENTS.md rules
  </text>
</svg>
