<svg
  width="1080"
  height="1920"
  viewBox="0 0 1080 1920"
  fill="none"
  xmlns="http://www.w3.org/2000/svg"
>
  <rect width="1080" height="1920" fill="#F7F7F2" />
  <defs>
    <pattern id="grid" width="44" height="44" patternUnits="userSpaceOnUse">
      <path d="M 44 0 L 0 0 0 44" fill="none" stroke="#DCDCD4" stroke-width="1" />
    </pattern>
    <marker id="arrow" markerWidth="14" markerHeight="14" refX="12" refY="7" orient="auto">
      <path
        d="M2 2 L12 7 L2 12"
        fill="none"
        stroke="#141414"
        stroke-width="2.2"
        stroke-linecap="round"
        stroke-linejoin="round"
      />
    </marker>
  </defs>
  <rect width="1080" height="1920" fill="url(#grid)" opacity="0.55" />

  <text
    x="92"
    y="166"
    font-family="Helvetica, Arial, sans-serif"
    font-size="86"
    font-weight="700"
    fill="#141414"
  >
    LLM Wiki
  </text>
  <text x="96" y="226" font-family="ui-monospace, Menlo, monospace" font-size="27" fill="#6F6F6A">
    compile knowledge, then keep it current
  </text>

  <rect
    x="126"
    y="386"
    width="828"
    height="262"
    rx="28"
    fill="#FFFFFF"
    stroke="#141414"
    stroke-width="3"
  />
  <text
    x="178"
    y="462"
    font-family="Helvetica, Arial, sans-serif"
    font-size="44"
    font-weight="700"
    fill="#141414"
  >
    Raw sources
  </text>
  <text x="180" y="515" font-family="ui-monospace, Menlo, monospace" font-size="25" fill="#6F6F6A">
    immutable files, clips, notes
  </text>
  <rect x="180" y="562" width="196" height="42" rx="7" fill="#F3F4F6" stroke="#D1D5DB" />
  <rect x="410" y="562" width="196" height="42" rx="7" fill="#F3F4F6" stroke="#D1D5DB" />
  <rect x="640" y="562" width="196" height="42" rx="7" fill="#F3F4F6" stroke="#D1D5DB" />

  <path d="M540 650 V754" stroke="#141414" stroke-width="3" marker-end="url(#arrow)" />

  <rect
    x="126"
    y="762"
    width="828"
    height="340"
    rx="28"
    fill="#FFF8D7"
    stroke="#CE9500"
    stroke-width="3"
  />
  <text
    x="178"
    y="842"
    font-family="Helvetica, Arial, sans-serif"
    font-size="44"
    font-weight="700"
    fill="#141414"
  >
    Agent compiler
  </text>
  <text x="180" y="895" font-family="ui-monospace, Menlo, monospace" font-size="25" fill="#6F6F6A">
    ingest, compare, cite, lint
  </text>
  <circle
    cx="540"
    cy="992"
    r="86"
    fill="#EFC003"
    fill-opacity="0.28"
    stroke="#CE9500"
    stroke-width="3"
  />
  <circle
    cx="540"
    cy="992"
    r="38"
    fill="#EFC003"
    fill-opacity="0.55"
    stroke="#CE9500"
    stroke-width="3"
  />

  <path d="M540 1105 V1210" stroke="#141414" stroke-width="3" marker-end="url(#arrow)" />

  <rect
    x="126"
    y="1220"
    width="828"
    height="320"
    rx="28"
    fill="#FFFFFF"
    stroke="#141414"
    stroke-width="3"
  />
  <text
    x="178"
    y="1300"
    font-family="Helvetica, Arial, sans-serif"
    font-size="44"
    font-weight="700"
    fill="#141414"
  >
    Maintained wiki
  </text>
  <text x="180" y="1353" font-family="ui-monospace, Menlo, monospace" font-size="25" fill="#6F6F6A">
    index, log, topics, decisions
  </text>
  <rect
    x="180"
    y="1408"
    width="700"
    height="52"
    rx="8"
    fill="#F3F8ED"
    stroke="#75B34A"
    stroke-width="2"
  />
  <rect
    x="180"
    y="1482"
    width="700"
    height="52"
    rx="8"
    fill="#F3F8ED"
    stroke="#75B34A"
    stroke-width="2"
  />

  <path
    d="M198 1604 C282 1702 420 1748 540 1748 C660 1748 798 1702 882 1604"
    stroke="#75B34A"
    stroke-width="4"
    stroke-linecap="round"
  />
  <text
    x="240"
    y="1810"
    font-family="Helvetica, Arial, sans-serif"
    font-size="34"
    font-weight="700"
    fill="#141414"
  >
    answers write back
  </text>
  <text x="242" y="1852" font-family="ui-monospace, Menlo, monospace" font-size="22" fill="#6F6F6A">
    the corpus gets smarter after the session
  </text>
</svg>
