<svg
  width="1600"
  height="900"
  viewBox="0 0 1600 900"
  fill="none"
  xmlns="http://www.w3.org/2000/svg"
>
  <rect width="1600" height="900" fill="#F7F7F2" />
  <defs>
    <pattern id="grid" width="40" height="40" patternUnits="userSpaceOnUse">
      <path d="M 40 0 L 0 0 0 40" fill="none" stroke="#DCDCD4" stroke-width="1" />
    </pattern>
    <marker id="arrow" markerWidth="12" markerHeight="12" refX="10" refY="6" orient="auto">
      <path
        d="M2 2 L10 6 L2 10"
        fill="none"
        stroke="#141414"
        stroke-width="1.8"
        stroke-linecap="round"
        stroke-linejoin="round"
      />
    </marker>
    <marker id="arrow-yellow" markerWidth="12" markerHeight="12" refX="10" refY="6" orient="auto">
      <path
        d="M2 2 L10 6 L2 10"
        fill="none"
        stroke="#CE9500"
        stroke-width="1.8"
        stroke-linecap="round"
        stroke-linejoin="round"
      />
    </marker>
  </defs>
  <rect width="1600" height="900" fill="url(#grid)" opacity="0.55" />

  <text
    x="96"
    y="116"
    font-family="Helvetica, Arial, sans-serif"
    font-size="58"
    font-weight="700"
    fill="#141414"
  >
    LLM Wiki as knowledge compilation
  </text>
  <text x="100" y="160" font-family="ui-monospace, Menlo, monospace" font-size="20" fill="#6F6F6A">
    raw sources -> agent compiler -> maintained wiki -> answer writeback
  </text>

  <rect
    x="92"
    y="248"
    width="285"
    height="388"
    rx="18"
    fill="#FFFFFF"
    stroke="#141414"
    stroke-width="2"
  />
  <text
    x="126"
    y="304"
    font-family="Helvetica, Arial, sans-serif"
    font-size="30"
    font-weight="700"
    fill="#141414"
  >
    Raw sources
  </text>
  <text x="126" y="342" font-family="ui-monospace, Menlo, monospace" font-size="18" fill="#6F6F6A">
    immutable truth
  </text>
  <rect x="126" y="388" width="214" height="42" rx="6" fill="#F3F4F6" stroke="#D1D5DB" />
  <text x="144" y="415" font-family="ui-monospace, Menlo, monospace" font-size="16" fill="#141414">
    papers/
  </text>
  <rect x="126" y="448" width="214" height="42" rx="6" fill="#F3F4F6" stroke="#D1D5DB" />
  <text x="144" y="475" font-family="ui-monospace, Menlo, monospace" font-size="16" fill="#141414">
    transcripts/
  </text>
  <rect x="126" y="508" width="214" height="42" rx="6" fill="#F3F4F6" stroke="#D1D5DB" />
  <text x="144" y="535" font-family="ui-monospace, Menlo, monospace" font-size="16" fill="#141414">
    docs/
  </text>
  <rect x="126" y="568" width="214" height="42" rx="6" fill="#F3F4F6" stroke="#D1D5DB" />
  <text x="144" y="595" font-family="ui-monospace, Menlo, monospace" font-size="16" fill="#141414">
    datasets/
  </text>

  <rect
    x="472"
    y="248"
    width="300"
    height="388"
    rx="18"
    fill="#FFF8D7"
    stroke="#CE9500"
    stroke-width="2"
  />
  <text
    x="508"
    y="304"
    font-family="Helvetica, Arial, sans-serif"
    font-size="30"
    font-weight="700"
    fill="#141414"
  >
    Agent compiler
  </text>
  <text x="508" y="342" font-family="ui-monospace, Menlo, monospace" font-size="18" fill="#6F6F6A">
    ingest, compare, revise
  </text>
  <circle
    cx="622"
    cy="461"
    r="72"
    fill="#EFC003"
    fill-opacity="0.25"
    stroke="#CE9500"
    stroke-width="2"
  />
  <circle
    cx="622"
    cy="461"
    r="35"
    fill="#EFC003"
    fill-opacity="0.45"
    stroke="#CE9500"
    stroke-width="2"
  />
  <path d="M552 558 H692" stroke="#CE9500" stroke-width="2" stroke-linecap="round" />
  <path d="M552 586 H692" stroke="#CE9500" stroke-width="2" stroke-linecap="round" />

  <rect
    x="506"
    y="676"
    width="232"
    height="98"
    rx="14"
    fill="#FFFFFF"
    stroke="#141414"
    stroke-width="1.5"
  />
  <text
    x="534"
    y="718"
    font-family="Helvetica, Arial, sans-serif"
    font-size="23"
    font-weight="700"
    fill="#141414"
  >
    Schema
  </text>
  <text x="534" y="750" font-family="ui-monospace, Menlo, monospace" font-size="16" fill="#6F6F6A">
    AGENTS.md / CLAUDE.md
  </text>

  <rect
    x="870"
    y="248"
    width="330"
    height="388"
    rx="18"
    fill="#FFFFFF"
    stroke="#141414"
    stroke-width="2"
  />
  <text
    x="908"
    y="304"
    font-family="Helvetica, Arial, sans-serif"
    font-size="30"
    font-weight="700"
    fill="#141414"
  >
    Maintained wiki
  </text>
  <text x="908" y="342" font-family="ui-monospace, Menlo, monospace" font-size="18" fill="#6F6F6A">
    compiled synthesis
  </text>
  <rect x="908" y="386" width="252" height="44" rx="7" fill="#F3F8ED" stroke="#75B34A" />
  <text x="928" y="414" font-family="ui-monospace, Menlo, monospace" font-size="16" fill="#141414">
    index.md
  </text>
  <rect x="908" y="446" width="252" height="44" rx="7" fill="#F3F8ED" stroke="#75B34A" />
  <text x="928" y="474" font-family="ui-monospace, Menlo, monospace" font-size="16" fill="#141414">
    log.md
  </text>
  <rect x="908" y="506" width="252" height="44" rx="7" fill="#F3F8ED" stroke="#75B34A" />
  <text x="928" y="534" font-family="ui-monospace, Menlo, monospace" font-size="16" fill="#141414">
    topics/ entities/
  </text>
  <rect x="908" y="566" width="252" height="44" rx="7" fill="#F3F8ED" stroke="#75B34A" />
  <text x="928" y="594" font-family="ui-monospace, Menlo, monospace" font-size="16" fill="#141414">
    decisions/ contradictions/
  </text>

  <rect
    x="1294"
    y="296"
    width="218"
    height="132"
    rx="18"
    fill="#111827"
    stroke="#111827"
    stroke-width="2"
  />
  <text
    x="1332"
    y="350"
    font-family="Helvetica, Arial, sans-serif"
    font-size="28"
    font-weight="700"
    fill="#FFFFFF"
  >
    Answer
  </text>
  <text x="1332" y="386" font-family="ui-monospace, Menlo, monospace" font-size="16" fill="#D1D5DB">
    cited response
  </text>

  <rect
    x="1294"
    y="502"
    width="218"
    height="132"
    rx="18"
    fill="#F3F8ED"
    stroke="#75B34A"
    stroke-width="2"
  />
  <text
    x="1332"
    y="556"
    font-family="Helvetica, Arial, sans-serif"
    font-size="28"
    font-weight="700"
    fill="#141414"
  >
    Writeback
  </text>
  <text x="1332" y="592" font-family="ui-monospace, Menlo, monospace" font-size="16" fill="#4B5563">
    save useful work
  </text>

  <path d="M378 442 H468" stroke="#141414" stroke-width="2.2" marker-end="url(#arrow)" />
  <path d="M774 442 H866" stroke="#141414" stroke-width="2.2" marker-end="url(#arrow)" />
  <path d="M1202 361 H1290" stroke="#141414" stroke-width="2.2" marker-end="url(#arrow)" />
  <path d="M1403 430 V496" stroke="#75B34A" stroke-width="2.2" marker-end="url(#arrow)" />
  <path
    d="M1294 568 C1242 654 1128 698 1036 642"
    stroke="#75B34A"
    stroke-width="2.2"
    marker-end="url(#arrow)"
  />
  <path d="M622 676 V640" stroke="#141414" stroke-width="2" marker-end="url(#arrow)" />

  <text x="96" y="822" font-family="ui-monospace, Menlo, monospace" font-size="18" fill="#6F6F6A">
    Rule of thumb: raw files remain stable, wiki pages change through visible diffs, useful answers
    return to the corpus.
  </text>
</svg>
